<svg id="Layer_1" data-name="Layer 1" xmlns="http://www.w3.org/2000/svg" viewBox="0 0 1968.97 1331.27"><defs><style>.cls-1{fill:#fff;}.cls-2{fill:#8ae3e1;}.cls-3{fill:#ffbd00;}.cls-4{fill:#ff7540;}</style></defs><polygon class="cls-1" points="1105.57 596.04 914.66 407.55 860.18 462.72 995.2 596.04 1105.57 596.04"/><polygon class="cls-2" points="529.13 273.25 739.99 273.25 821.82 352.58 609.9 352.58 529.13 273.25"/><polygon class="cls-3" points="466.97 394.57 677.84 394.57 759.67 473.9 547.75 473.9 466.97 394.57"/><polygon class="cls-4" points="636.45 515.9 847.31 515.9 929.15 595.22 717.23 595.22 636.45 515.9"/><polygon class="cls-1" points="1133.4 595.22 1207.55 595.22 1207.55 489.55 1296.54 489.55 1366.99 415.4 1133.4 415.4 1133.4 595.22"/><path class="cls-1" d="M1007.63,273.25H798.28l77.54,77.54h131.81a22.79,22.79,0,1,1,0,45.57H740l77.54,77.54h190.1a100.33,100.33,0,1,0,0-200.65Z"/><path class="cls-1" d="M818,184.43a353.7,353.7,0,0,1,564.44,88.82H1095.45a133.36,133.36,0,0,1,43.62,77.54H1494A434.41,434.41,0,0,0,681.87,234.93H776A356.93,356.93,0,0,1,818,184.43Z"/><path class="cls-1" d="M1494,350.93l-76.67,32a357.19,357.19,0,0,1,3.7,51.27A353.27,353.27,0,0,1,818,684a355.81,355.81,0,0,1-42-50.5H681.87A434.37,434.37,0,0,0,1494,350.93Z"/><path class="cls-1" d="M0,1134V967.13H134.58a31.33,31.33,0,0,1,16.24,4.4,33.7,33.7,0,0,1,11.83,11.72,30.62,30.62,0,0,1,4.41,16.13v45a31.21,31.21,0,0,1-4.41,16.24,32.42,32.42,0,0,1-11.83,11.72,31.91,31.91,0,0,1-16.24,4.29l-104,.23V1134Zm33.41-88.17h99.77a3.41,3.41,0,0,0,2.09-.69,2.21,2.21,0,0,0,.93-1.86v-42.69a2.52,2.52,0,0,0-.93-2,3.05,3.05,0,0,0-2.09-.82H33.41a2.64,2.64,0,0,0-2,.82,2.69,2.69,0,0,0-.81,2v42.69a2.33,2.33,0,0,0,.81,1.86A2.92,2.92,0,0,0,33.41,1045.78ZM133.18,1134l-50.35-60.09H123l43.63,51.51V1134Z"/><path class="cls-1" d="M220.31,1129.54a34,34,0,0,1-11.72-11.71,30.23,30.23,0,0,1-4.41-15.9V1031.4a30,30,0,0,1,4.41-16,34.33,34.33,0,0,1,11.72-11.6,30.19,30.19,0,0,1,15.89-4.41h72.63a31.3,31.3,0,0,1,16.13,4.29,32.17,32.17,0,0,1,11.6,11.6,31.28,31.28,0,0,1,4.29,16.13V1082H234.58v18.79a2.77,2.77,0,0,0,2.78,2.79H340.85V1134H236.2A30.19,30.19,0,0,1,220.31,1129.54Zm14.27-74.94h75.87v-22a2.73,2.73,0,0,0-.81-2,2.69,2.69,0,0,0-2-.81H237.36a2.69,2.69,0,0,0-2,.81,2.73,2.73,0,0,0-.81,2Z"/><path class="cls-1" d="M380.29,1134V966.89H534.12v30.86h-123v37.13H510V1066H411.15v68Z"/><path class="cls-1" d="M560.57,985.92V955.29H591v30.63Zm0,148V999.38H591V1134Z"/><path class="cls-1" d="M642.24,1129.54a34.3,34.3,0,0,1-11.6-11.71,30.22,30.22,0,0,1-4.4-15.9V958.08h30.39v41.3h52.44v30.39H656.63v71a2.77,2.77,0,0,0,2.78,2.79h49.66V1134H658.26A30.07,30.07,0,0,1,642.24,1129.54Z"/><path class="cls-1" d="M893.3,1134V985.69H819.05v-18.8H986.11v18.8h-74V1134Z"/><path class="cls-1" d="M1017,1134V955.29h19v44.09h90a26.76,26.76,0,0,1,14,3.82,29.36,29.36,0,0,1,10.21,10.21,26.83,26.83,0,0,1,3.83,14V1134h-19v-106.5a9.1,9.1,0,0,0-9-9.05h-80.75a9.1,9.1,0,0,0-6.5,2.67,8.56,8.56,0,0,0-2.78,6.38V1134Z"/><path class="cls-1" d="M1199.22,1130.12a29.3,29.3,0,0,1-10.2-10.2,26.74,26.74,0,0,1-3.83-14v-78.43a26.74,26.74,0,0,1,3.83-14,29.41,29.41,0,0,1,10.2-10.21,26.82,26.82,0,0,1,14-3.82H1294a27.25,27.25,0,0,1,14.27,3.82,29.53,29.53,0,0,1,10.21,10.21,26.82,26.82,0,0,1,3.82,14v48.73h-118.1v29.7a9.12,9.12,0,0,0,9,9h109v19h-109A26.74,26.74,0,0,1,1199.22,1130.12Zm5-73h98.85v-29.7a9.12,9.12,0,0,0-9-9.05h-80.75a9.12,9.12,0,0,0-9,9.05Z"/><path class="cls-1" d="M1358.74,1134v-106.5a26.83,26.83,0,0,1,3.83-14,29.36,29.36,0,0,1,10.21-10.21,26.77,26.77,0,0,1,14-3.82h75.64v19h-75.64a9.12,9.12,0,0,0-9,9.05V1134Z"/><path class="cls-1" d="M1519.54,1134a26.69,26.69,0,0,1-14-3.83,29.25,29.25,0,0,1-10.21-10.2,26.83,26.83,0,0,1-3.83-14v-48.73h117.87v-29.7a9.12,9.12,0,0,0-9-9.05H1491.46v-19h108.82a27.23,27.23,0,0,1,14.27,3.82,29.44,29.44,0,0,1,10.21,10.21,26.83,26.83,0,0,1,3.83,14V1134Zm0-19h89.79v-38.75h-98.84v29.7a9.12,9.12,0,0,0,9,9Z"/><path class="cls-1" d="M1666.87,1187.32V999.38h109.05a26.8,26.8,0,0,1,14,3.82,29.44,29.44,0,0,1,10.21,10.21,26.83,26.83,0,0,1,3.83,14v78.43a26.83,26.83,0,0,1-3.83,14,29.33,29.33,0,0,1-10.21,10.2,26.71,26.71,0,0,1-14,3.83h-90v53.37Zm28.31-72.39h80.74a9.12,9.12,0,0,0,9-9v-78.43a9.12,9.12,0,0,0-9-9.05h-80.74a9.1,9.1,0,0,0-6.5,2.67,8.52,8.52,0,0,0-2.78,6.38v78.43a8.52,8.52,0,0,0,2.78,6.38A9.1,9.1,0,0,0,1695.18,1114.93Z"/><path class="cls-1" d="M1856.9,1187.32v-19.26h84a9.12,9.12,0,0,0,9-9V1134h-89.8a26.68,26.68,0,0,1-14-3.83,29.25,29.25,0,0,1-10.21-10.2,26.83,26.83,0,0,1-3.83-14v-106h19v106a9.1,9.1,0,0,0,9,9h80.75a9.12,9.12,0,0,0,9-9v-106h19V1159a27.8,27.8,0,0,1-3.72,14.27,28.29,28.29,0,0,1-10.09,10.21,27.24,27.24,0,0,1-14.27,3.83Z"/><path class="cls-2" d="M288.61,1304.32V1220h77v9.49H298.1v27.89h54.25v9.61H298.1v37.38Z"/><path class="cls-2" d="M389,1223.7v-9.61h9.61v9.61Zm0,80.62v-68h9.61v68Z"/><path class="cls-2" d="M436.9,1302.39a14.33,14.33,0,0,1-5.1-5.16,13.8,13.8,0,0,1-1.87-7.08v-76.06h9.6v22.27H469V1246H439.53v44.18a4.59,4.59,0,0,0,4.57,4.56H469v9.61H444.1A13.7,13.7,0,0,1,436.9,1302.39Z"/><path class="cls-2" d="M494.49,1304.32v-68h55.08a13.5,13.5,0,0,1,7.08,1.93,14.82,14.82,0,0,1,5.16,5.16,13.51,13.51,0,0,1,1.93,7.09v53.78h-9.6v-53.78a4.61,4.61,0,0,0-4.57-4.57H508.79a4.56,4.56,0,0,0-3.28,1.35,4.28,4.28,0,0,0-1.41,3.22v53.78Z"/><path class="cls-2" d="M599.19,1302.39a14.82,14.82,0,0,1-5.16-5.16,13.57,13.57,0,0,1-1.93-7.08v-39.61a13.6,13.6,0,0,1,1.93-7.09,14.82,14.82,0,0,1,5.16-5.16,13.51,13.51,0,0,1,7.09-1.93h40.78a13.73,13.73,0,0,1,7.21,1.93,14.88,14.88,0,0,1,5.15,5.16,13.52,13.52,0,0,1,1.94,7.09v24.6H601.71v15a4.59,4.59,0,0,0,4.57,4.56h55.08v9.61H606.28A13.51,13.51,0,0,1,599.19,1302.39Zm2.52-36.86h49.92v-15a4.61,4.61,0,0,0-4.57-4.57H606.28a4.61,4.61,0,0,0-4.57,4.57Z"/><path class="cls-2" d="M696.33,1302.39a14.88,14.88,0,0,1-5.15-5.16,13.48,13.48,0,0,1-1.93-7.08v-.94h9.6v.94a4.59,4.59,0,0,0,4.58,4.56H744.2a4.58,4.58,0,0,0,4.57-4.56v-10.43a4.59,4.59,0,0,0-4.57-4.58H703.43a13.55,13.55,0,0,1-7.1-1.93,14.88,14.88,0,0,1-5.15-5.16,13.48,13.48,0,0,1-1.93-7.08v-10.43a13.51,13.51,0,0,1,1.93-7.09,14.88,14.88,0,0,1,5.15-5.16,13.55,13.55,0,0,1,7.1-1.93H744.2a13.73,13.73,0,0,1,7.21,1.93,14.82,14.82,0,0,1,5.16,5.16,13.6,13.6,0,0,1,1.93,7.09v.94h-9.73v-.94a4.59,4.59,0,0,0-4.57-4.57H703.43a4.61,4.61,0,0,0-4.58,4.57V1261a4.59,4.59,0,0,0,4.58,4.56H744.2a13.74,13.74,0,0,1,7.21,1.94,14.88,14.88,0,0,1,5.16,5.15,13.64,13.64,0,0,1,1.93,7.1v10.43a13.57,13.57,0,0,1-1.93,7.08,14.82,14.82,0,0,1-5.16,5.16,13.73,13.73,0,0,1-7.21,1.93H703.43A13.55,13.55,0,0,1,696.33,1302.39Z"/><path class="cls-2" d="M793.13,1302.39a14.82,14.82,0,0,1-5.16-5.16,13.48,13.48,0,0,1-1.93-7.08v-.94h9.61v.94a4.58,4.58,0,0,0,4.57,4.56H841a4.58,4.58,0,0,0,4.57-4.56v-10.43a4.59,4.59,0,0,0-4.57-4.58H800.22a13.48,13.48,0,0,1-7.09-1.93,14.82,14.82,0,0,1-5.16-5.16A13.48,13.48,0,0,1,786,1261v-10.43a13.51,13.51,0,0,1,1.93-7.09,14.82,14.82,0,0,1,5.16-5.16,13.48,13.48,0,0,1,7.09-1.93H841a13.73,13.73,0,0,1,7.21,1.93,14.82,14.82,0,0,1,5.16,5.16,13.6,13.6,0,0,1,1.93,7.09v.94h-9.73v-.94A4.59,4.59,0,0,0,841,1246H800.22a4.59,4.59,0,0,0-4.57,4.57V1261a4.58,4.58,0,0,0,4.57,4.56H841a13.74,13.74,0,0,1,7.21,1.94,14.88,14.88,0,0,1,5.16,5.15,13.64,13.64,0,0,1,1.93,7.1v10.43a13.57,13.57,0,0,1-1.93,7.08,14.82,14.82,0,0,1-5.16,5.16,13.73,13.73,0,0,1-7.21,1.93H800.22A13.48,13.48,0,0,1,793.13,1302.39Z"/><path class="cls-2" d="M932,1304.32v-84.25h70.31a13.51,13.51,0,0,1,7.09,1.93,14.48,14.48,0,0,1,5.1,5.1,13.52,13.52,0,0,1,1.87,7v24.73a13.55,13.55,0,0,1-1.87,7,14.46,14.46,0,0,1-5.1,5.09,13.52,13.52,0,0,1-7.09,1.94H941.53v31.4Zm14.06-41h56.25a4.49,4.49,0,0,0,3.22-1.29,4.2,4.2,0,0,0,1.35-3.16v-24.73a4.61,4.61,0,0,0-4.57-4.57H946.1a4.61,4.61,0,0,0-4.57,4.57v24.73a4.2,4.2,0,0,0,1.35,3.16A4.49,4.49,0,0,0,946.1,1263.31Zm57.19,41-27.54-32.81h12.42l27.66,32.69v.12Z"/><path class="cls-2" d="M1051.63,1302.39a14.82,14.82,0,0,1-5.16-5.16,13.48,13.48,0,0,1-1.93-7.08v-39.61a13.51,13.51,0,0,1,1.93-7.09,14.82,14.82,0,0,1,5.16-5.16,13.51,13.51,0,0,1,7.09-1.93h40.78a13.72,13.72,0,0,1,7.2,1.93,14.82,14.82,0,0,1,5.16,5.16,13.51,13.51,0,0,1,1.93,7.09v24.6h-59.64v15a4.58,4.58,0,0,0,4.57,4.56h55.07v9.61h-55.07A13.51,13.51,0,0,1,1051.63,1302.39Zm2.52-36.86h49.92v-15a4.61,4.61,0,0,0-4.57-4.57h-40.78a4.59,4.59,0,0,0-4.57,4.57Z"/><path class="cls-2" d="M1146.78,1302.39a14.82,14.82,0,0,1-5.16-5.16,13.48,13.48,0,0,1-1.93-7.08v-39.61a13.51,13.51,0,0,1,1.93-7.09,14.82,14.82,0,0,1,5.16-5.16,13.51,13.51,0,0,1,7.09-1.93h54.84V1246h-54.84a4.59,4.59,0,0,0-4.57,4.57v39.61a4.58,4.58,0,0,0,4.57,4.56h55.07v9.61h-55.07A13.51,13.51,0,0,1,1146.78,1302.39Z"/><path class="cls-2" d="M1244.62,1302.39a14.79,14.79,0,0,1-5.15-5.16,13.48,13.48,0,0,1-1.94-7.08v-39.61a13.52,13.52,0,0,1,1.94-7.09,14.79,14.79,0,0,1,5.15-5.16,13.51,13.51,0,0,1,7.09-1.93h40.78a13.76,13.76,0,0,1,7.21,1.93,14.88,14.88,0,0,1,5.15,5.16,13.52,13.52,0,0,1,1.94,7.09v39.61a13.48,13.48,0,0,1-1.94,7.08,14.88,14.88,0,0,1-5.15,5.16,13.76,13.76,0,0,1-7.21,1.93h-40.78A13.51,13.51,0,0,1,1244.62,1302.39Zm7.09-7.68h40.78a4.59,4.59,0,0,0,4.57-4.56v-39.61a4.61,4.61,0,0,0-4.57-4.57h-40.78a4.61,4.61,0,0,0-4.57,4.57v39.61a4.59,4.59,0,0,0,4.57,4.56Z"/><path class="cls-2" d="M1367.49,1304.32l-37.5-68h11.25l31.87,58.59,31.87-58.59h11.26l-37.62,68Z"/><path class="cls-2" d="M1446.06,1302.39a14.82,14.82,0,0,1-5.16-5.16,13.48,13.48,0,0,1-1.93-7.08v-39.61a13.51,13.51,0,0,1,1.93-7.09,14.82,14.82,0,0,1,5.16-5.16,13.51,13.51,0,0,1,7.09-1.93h40.78a13.72,13.72,0,0,1,7.2,1.93,14.82,14.82,0,0,1,5.16,5.16,13.51,13.51,0,0,1,1.93,7.09v24.6h-59.64v15a4.59,4.59,0,0,0,4.57,4.56h55.07v9.61h-55.07A13.51,13.51,0,0,1,1446.06,1302.39Zm2.52-36.86h49.92v-15a4.61,4.61,0,0,0-4.57-4.57h-40.78a4.61,4.61,0,0,0-4.57,4.57Z"/><path class="cls-2" d="M1536,1304.32v-53.78a13.52,13.52,0,0,1,1.94-7.09,14.88,14.88,0,0,1,5.15-5.16,13.54,13.54,0,0,1,7.09-1.93h38.21V1246h-38.21a4.61,4.61,0,0,0-4.57,4.57v53.78Z"/><path class="cls-2" d="M1623.76,1331.27v-9.72h42.42a4.61,4.61,0,0,0,4.57-4.57v-12.66H1625.4a13.51,13.51,0,0,1-7.09-1.93,14.82,14.82,0,0,1-5.16-5.16,13.48,13.48,0,0,1-1.93-7.08v-53.56h9.61v53.56a4.59,4.59,0,0,0,4.57,4.56h40.78a4.59,4.59,0,0,0,4.57-4.56v-53.56h9.61V1317a14.1,14.1,0,0,1-1.88,7.21,14.43,14.43,0,0,1-5.09,5.15,13.76,13.76,0,0,1-7.21,1.93Z"/></svg>